<?xml version="1.0" encoding="UTF-8"?>
<svg width="1400px" height="1400px" viewBox="0 0 1400 1400" version="1.1" xmlns="http://www.w3.org/2000/svg" xmlns:xlink="http://www.w3.org/1999/xlink">
    <!-- Generator: Sketch 55.2 (78181) - https://sketchapp.com -->
    <title>Group 3</title>
    <desc>Created with Sketch.</desc>
    <g id="Page-1" stroke="none" stroke-width="1" fill="none" fill-rule="evenodd">
        <g id="Artboard-Copy" transform="translate(-1169.000000, -1147.000000)">
            <g id="Group-4" transform="translate(1169.000000, 989.000000)">
                <g id="Group-3" transform="translate(0.000000, 158.000000)">
                    <g id="Group-2">
                        <circle id="Oval-2" fill="#66E366" cx="700" cy="700" r="700"></circle>
                        <g id="Group" transform="translate(168.000000, 126.000000)" fill="#FFFFFF" fill-rule="nonzero">
                            <g id="home">
                                <path d="M813.323067,241.868163 L1069.73927,476.594204 C1080.10424,486.445258 1080.85126,502.473313 1071.20998,513.036214 C1066.02749,518.501368 1058.97745,521.050242 1051.95075,521.050242 L922.27194,521.417647 L922.27194,982.120891 C922.27194,996.334883 910.412924,1008 895.962667,1008 L691.791497,1008 C677.34124,1008 400.545269,1008 386.095012,1008 L181.923842,1008 C167.473584,1008 155.988081,996.334883 155.988081,982.120891 L155.988081,521.417647 L25.9357614,521.417647 C11.4855037,521.417647 0,509.775493 0,495.561501 C0,487.547474 3.71177864,480.245294 9.64128664,475.514951 L264.936954,241.891126 L521.329814,6.77471675 C531.344613,-2.31856365 546.892063,-2.31856365 556.906862,7.14212202 L813.323067,241.868163 Z M777.746019,279.412389 L539.118338,60.7373656 L300.490658,279.435352 L92.6310542,469.705355 L181.923842,469.705355 C196.3741,469.705355 208.233116,481.370473 208.233116,495.584464 L208.233116,956.287708 L562.329455,956.241783 L870.026905,956.241783 L870.026905,495.561501 C870.026905,481.34751 881.512409,469.682393 895.962667,469.682393 L985.628967,469.682393 L777.746019,279.412389 Z" id="Shape"></path>
                            </g>
                            <g id="plant-trees" transform="translate(336.000000, 448.000000)">
                                <path d="M183.128991,232.616753 C185.736293,232.616753 188.360943,232.561032 190.993598,232.448263 L190.993598,356.308166 C172.858566,360.580112 157.79252,374.302081 152.403116,392.556027 C150.535038,398.884345 154.180458,405.519128 160.543931,407.376496 C161.672784,407.705516 162.812311,407.863535 163.931824,407.863535 C169.12508,407.863535 173.912696,404.488289 175.449857,399.283679 C179.011214,387.218748 190.342439,378.792931 203.004003,378.792931 C215.665567,378.792931 226.995458,387.220075 230.558149,399.283679 C232.426227,405.61067 239.097933,409.235191 245.464075,407.376496 C251.828882,405.519128 255.471634,398.884345 253.603556,392.557354 C248.212818,374.302081 233.146771,360.581439 215.013074,356.309493 L215.013074,232.44959 C215.668235,232.559705 216.340743,232.616753 217.026595,232.616753 C318.002866,232.616753 400.152917,150.939 400.152917,50.5416333 C400.152917,36.9841745 398.63844,23.4373292 395.649515,10.2792045 C394.517994,5.29217175 390.316153,1.57478262 385.202958,1.03481924 C378.692707,0.348919822 372.111736,0 365.644184,0 C306.938509,0 251.371203,28.3023063 216.999908,75.7102947 C213.120978,81.0595141 214.339232,88.5221529 219.719295,92.377518 C225.099359,96.2355364 232.606363,95.0242672 236.482624,89.673721 C266.353186,48.4759748 314.637657,23.8804441 365.644184,23.8804441 C368.382253,23.8804441 371.145673,23.9520854 373.913097,24.0953681 C375.387544,32.8104035 376.132106,41.6727017 376.132106,50.54296 C376.132106,134.018379 310.766733,202.600361 228.253742,208.347588 L304.038985,120.073526 C308.344904,115.057306 307.745785,107.5217 302.701975,103.240467 C297.658165,98.9592337 290.077773,99.5549181 285.771854,104.569811 L217.625714,183.947081 C217.632386,183.323536 217.635054,182.701318 217.635054,182.077773 C217.635054,81.679079 135.485003,0 34.5100667,0 C28.0425149,0 21.4628784,0.348919822 14.9526276,1.03481924 C9.83809774,1.57478262 5.63892595,5.29084506 4.50473593,10.2792045 C1.51581161,23.4452893 0,36.9908079 0,50.5416333 C0,150.939 82.1513853,232.616753 183.128991,232.616753 Z M26.2398199,24.0953681 C29.0085779,23.9520854 31.7706642,23.8804441 34.5100667,23.8804441 C122.241667,23.8804441 193.616913,94.8464905 193.616913,182.076446 C193.616913,185.605445 193.499491,189.131791 193.264647,192.648849 L114.215605,104.380095 C109.804273,99.4554163 102.213205,99.0162814 97.2601308,103.402323 C92.3070562,107.788365 91.8667236,115.335912 96.2767213,120.26059 L175.344444,208.549245 C91.2088934,204.502837 24.0181418,135.177907 24.0181418,50.5416333 C24.0181418,41.675355 24.7640385,32.8143836 26.2398199,24.0953681 Z M0,385.691726 C0,347.233598 58.5922569,316.295156 149.268748,306.872994 C155.861728,306.193728 161.771525,310.948589 162.46138,317.507751 C163.151234,324.066913 158.362283,329.938849 151.765301,330.624749 C71.8009005,338.933817 24.0181418,365.149237 24.0181418,385.693053 C24.0181418,409.771174 92.1095737,443.356365 203.001334,443.356365 C313.891761,443.356365 381.981858,409.771174 381.981858,385.693053 C381.981858,364.995341 333.780116,338.696339 253.116522,330.51198 C246.518204,329.842001 241.71591,323.982005 242.388418,317.421516 C243.06226,310.861028 248.950708,306.078306 255.554363,306.754918 C346.946061,316.027164 406,347.01204 406,385.693053 C406,438.657224 301.410333,467.236809 203.001334,467.236809 C104.592336,467.236809 0,438.657224 0,385.691726 Z" id="Shape"></path>
                            </g>
                        </g>
                    </g>
                </g>
            </g>
        </g>
    </g>
</svg>